<svg width="998" height="723" viewBox="0 0 998 723" fill="none" xmlns="http://www.w3.org/2000/svg">
<path d="M208.19 258.655L126.247 260.231C125.209 260.251 124.221 260.673 123.489 261.408L2.78455 382.656C1.24069 384.207 1.22956 386.711 2.75957 388.275L123.39 511.622C124.179 512.43 125.273 512.866 126.401 512.823L209.482 509.668C211.63 509.586 213.33 507.821 213.33 505.671V438.295C213.33 436.086 211.539 434.295 209.33 434.295H165.794C164.302 434.295 162.934 435.125 162.245 436.449L158.61 443.441C157.355 445.853 154.112 446.338 152.207 444.399L97.0549 388.244C95.5315 386.693 95.5259 384.209 97.0425 382.651L152.576 325.603C154.365 323.765 157.398 324.062 158.796 326.213L162.214 331.472C162.935 332.581 164.157 333.261 165.478 333.291L209.179 334.273C211.446 334.324 213.302 332.482 213.269 330.215L212.267 262.595C212.234 260.38 210.406 258.613 208.19 258.655Z" fill="#020350"/>
<path d="M208.19 258.655L126.247 260.231C125.209 260.251 124.221 260.673 123.489 261.408L2.78455 382.656C1.24069 384.207 1.22956 386.711 2.75957 388.275L123.39 511.622C124.179 512.43 125.273 512.866 126.401 512.823L209.482 509.668C211.63 509.586 213.33 507.821 213.33 505.671V438.295C213.33 436.086 211.539 434.295 209.33 434.295H165.794C164.302 434.295 162.934 435.125 162.245 436.449L158.61 443.441C157.355 445.853 154.112 446.338 152.207 444.399L97.0549 388.244C95.5315 386.693 95.5259 384.209 97.0425 382.651L152.576 325.603C154.365 323.765 157.398 324.062 158.796 326.213L162.214 331.472C162.935 332.581 164.157 333.261 165.478 333.291L209.179 334.273C211.446 334.324 213.302 332.482 213.269 330.215L212.267 262.595C212.234 260.38 210.406 258.613 208.19 258.655Z" fill="black" fill-opacity="0.2"/>
<path d="M241.961 505.522V262.578C241.961 260.369 243.752 258.578 245.961 258.578H302.45C303.61 258.578 304.712 259.081 305.472 259.957L356.119 318.356C357.765 320.254 360.733 320.182 362.286 318.206L413.67 252.809C414.428 251.844 415.587 251.28 416.815 251.28H477.115C479.324 251.28 481.115 253.071 481.115 255.28V505.522C481.115 507.731 479.324 509.522 477.115 509.522H418.871C416.662 509.522 414.871 507.731 414.871 505.522V360.881C414.871 357.17 410.255 355.459 407.836 358.275L378.454 392.481C377.695 393.365 376.586 393.874 375.42 393.874H339.878C338.665 393.874 337.518 393.324 336.759 392.379L315.325 365.687C312.959 362.742 308.206 364.414 308.206 368.192V505.522C308.206 507.731 306.415 509.522 304.206 509.522H245.961C243.752 509.522 241.961 507.731 241.961 505.522Z" fill="#020350"/>
<path d="M241.961 505.522V262.578C241.961 260.369 243.752 258.578 245.961 258.578H302.45C303.61 258.578 304.712 259.081 305.472 259.957L356.119 318.356C357.765 320.254 360.733 320.182 362.286 318.206L413.67 252.809C414.428 251.844 415.587 251.28 416.815 251.28H477.115C479.324 251.28 481.115 253.071 481.115 255.28V505.522C481.115 507.731 479.324 509.522 477.115 509.522H418.871C416.662 509.522 414.871 507.731 414.871 505.522V360.881C414.871 357.17 410.255 355.459 407.836 358.275L378.454 392.481C377.695 393.365 376.586 393.874 375.42 393.874H339.878C338.665 393.874 337.518 393.324 336.759 392.379L315.325 365.687C312.959 362.742 308.206 364.414 308.206 368.192V505.522C308.206 507.731 306.415 509.522 304.206 509.522H245.961C243.752 509.522 241.961 507.731 241.961 505.522Z" fill="black" fill-opacity="0.2"/>
<path d="M646.657 251.28H519.279C517.6 251.28 516.1 252.329 515.523 253.906L500.357 295.359C499.908 296.585 500.086 297.952 500.833 299.022L592.376 430.252C594.226 432.904 592.328 436.54 589.095 436.54H559.186C557.772 436.54 556.462 435.793 555.742 434.575L550.767 426.155C550.047 424.937 548.738 424.19 547.323 424.19H503.641C501.432 424.19 499.641 425.981 499.641 428.19V505.522C499.641 507.731 501.432 509.522 503.641 509.522H630.896C632.351 509.522 633.691 508.732 634.395 507.46L672.475 438.704C673.21 437.378 673.131 435.751 672.273 434.501L595.452 322.667C593.629 320.013 595.529 316.402 598.749 316.402H646.657C648.866 316.402 650.657 314.611 650.657 312.402V255.28C650.657 253.071 648.866 251.28 646.657 251.28Z" fill="#020350"/>
<path d="M646.657 251.28H519.279C517.6 251.28 516.1 252.329 515.523 253.906L500.357 295.359C499.908 296.585 500.086 297.952 500.833 299.022L592.376 430.252C594.226 432.904 592.328 436.54 589.095 436.54H559.186C557.772 436.54 556.462 435.793 555.742 434.575L550.767 426.155C550.047 424.937 548.738 424.19 547.323 424.19H503.641C501.432 424.19 499.641 425.981 499.641 428.19V505.522C499.641 507.731 501.432 509.522 503.641 509.522H630.896C632.351 509.522 633.691 508.732 634.395 507.46L672.475 438.704C673.21 437.378 673.131 435.751 672.273 434.501L595.452 322.667C593.629 320.013 595.529 316.402 598.749 316.402H646.657C648.866 316.402 650.657 314.611 650.657 312.402V255.28C650.657 253.071 648.866 251.28 646.657 251.28Z" fill="black" fill-opacity="0.2"/>
<path d="M698.996 284.412L739.312 245.08C740.889 243.541 743.413 243.568 744.957 245.138L940.328 443.783C941.881 445.362 941.855 447.903 940.269 449.45L899.407 489.328C897.827 490.87 895.297 490.84 893.754 489.262L698.93 290.073C697.384 288.492 697.414 285.957 698.996 284.412Z" fill="#020350"/>
<path d="M698.996 284.412L739.312 245.08C740.889 243.541 743.413 243.568 744.957 245.138L940.328 443.783C941.881 445.362 941.855 447.903 940.269 449.45L899.407 489.328C897.827 490.87 895.297 490.84 893.754 489.262L698.93 290.073C697.384 288.492 697.414 285.957 698.996 284.412Z" fill="black" fill-opacity="0.2"/>
<path d="M870.105 267.029L699.038 436.466C697.443 438.047 697.46 440.63 699.077 442.188L739.889 481.525C741.462 483.042 743.962 483.014 745.502 481.464L913.983 311.897C915.522 310.347 915.534 307.849 914.009 306.285L875.783 267.079C874.233 265.488 871.683 265.466 870.105 267.029Z" fill="#C80704"/>
<path d="M734.248 486.483L694.467 447.193C692.902 445.648 690.383 445.656 688.827 447.211L682.099 453.94C680.543 455.495 680.536 458.014 682.081 459.579L721.371 499.36C722.93 500.939 725.476 500.946 727.045 499.378L734.265 492.158C735.834 490.589 735.826 488.042 734.248 486.483Z" fill="#C80704"/>
<path d="M916.96 299.662L882.682 264.47C880.713 262.45 881.399 259.082 884 257.991L954.841 228.283C958.354 226.81 961.743 230.616 959.873 233.935L923.31 298.835C922 301.161 918.822 301.575 916.96 299.662Z" fill="#C80704"/>
<path fill-rule="evenodd" clip-rule="evenodd" d="M604.204 530.721C626.846 516.017 648.69 500.918 669.653 485.541C671.269 484.355 673.513 484.543 674.906 485.984L697.503 509.369C699.192 511.117 698.945 513.956 696.973 515.378C678.657 528.597 659.69 541.595 640.127 554.3C398.081 711.486 151.979 766.953 72.7633 685.798C175.75 728.408 391.542 668.825 604.204 530.721ZM55.464 476.861C53.6301 474.941 50.4614 475.32 49.1426 477.624C9.70207 546.547 -0.754611 607.465 26.0667 648.766C36.7121 665.158 52.569 677.443 72.7633 685.798C68.7326 681.669 65.134 677.186 61.99 672.344C36.051 632.402 44.9778 574.112 81.2682 507.978C82.1122 506.44 81.8775 504.517 80.6658 503.249L55.464 476.861ZM282.778 238.368C278.974 238.368 277.328 233.573 280.346 231.257C308.259 209.835 337.901 188.856 369.055 168.625C611.101 11.4381 857.203 -44.0291 936.419 37.1261C833.432 -5.48392 617.64 54.0991 404.979 192.203C382.234 206.974 360.295 222.142 339.247 237.591C338.559 238.096 337.729 238.368 336.877 238.368H282.778ZM936.419 37.1261C956.613 45.4814 972.47 57.7661 983.115 74.1585C1002.63 104.202 1002.41 144.626 985.663 190.96C985.285 192.006 984.479 192.848 983.453 193.277L937.466 212.465C933.965 213.926 930.548 210.109 932.296 206.742C964.886 143.999 972.053 88.8625 947.192 50.5799C944.048 45.7386 940.45 41.2555 936.419 37.1261Z" fill="#C80704"/>
</svg>
